<?xml version="1.0" encoding="UTF-8"?>
<svg id="Layer_1" data-name="Layer 1" xmlns="http://www.w3.org/2000/svg" viewBox="0 0 199.17 141.83">
  <path d="M197.16,18.11h-14.09c-1.11,0-2.01-.9-2.01-2.01V2.01c0-1.11-.9-2.01-2.01-2.01H35.2c-1.11,0-2.01.9-2.01,2.01v14.09c0,1.11-.9,2.01-2.01,2.01h-14.09c-1.11,0-2.01.9-2.01,2.01v13.95c0,1.11-.9,2.01-2.01,2.01H2.01c-1.11,0-2.01.9-2.01,2.01v66.76c0,1.11.9,2.01,2.01,2.01h14.09c1.11,0,2.01.9,2.01,2.01v15.88c0,1.11.9,2.01,2.01,2.01h14.09c1.11,0,2.01.9,2.01,2.01v11.07c0,1.11.9,2.01,2.01,2.01h141.87c1.11,0,2.01-.9,2.01-2.01v-14.12c0-1.11.9-2.01,2.01-2.01h13.06c1.11,0,2.01-.9,2.01-2.01v-29.15c0-1.11-.9-2.01-2.01-2.01h-47.69c-1.11,0-2.01.9-2.01,2.01v17.11c0,1.11-.9,2.01-2.01,2.01h-74.68c-1.11,0-2.01-.9-2.01-2.01v-17.59c0-1.11-.9-2.01-2.01-2.01h-17.97c-1.11,0-2.01-.9-2.01-2.01v-35.05c0-1.11.9-2.01,2.01-2.01h18.33c1.11,0,2.01-.9,2.01-2.01v-16.58c0-1.11.9-2.01,2.01-2.01h73.23c1.11,0,2.01.9,2.01,2.01v18c0,1.11.9,2.01,2.01,2.01h48.79c1.11,0,2.01-.9,2.01-2.01v-30.28c0-1.11-.9-2.01-2.01-2.01Z"/>
</svg>