<?xml version="1.0" encoding="UTF-8"?>
<svg id="Layer_1" data-name="Layer 1" xmlns="http://www.w3.org/2000/svg" xmlns:xlink="http://www.w3.org/1999/xlink" version="1.1" viewBox="0 0 841.89 595.28">
  <defs>
    <style>
      .cls-1 {
        clip-path: url(#clippath);
      }

      .cls-2, .cls-3, .cls-4, .cls-5 {
        stroke-width: 0px;
      }

      .cls-2, .cls-6 {
        fill: none;
      }

      .cls-3 {
        fill: #c6a2cc;
      }

      .cls-4 {
        fill: #c6a3cc;
      }

      .cls-6 {
        stroke: #181818;
        stroke-linecap: round;
        stroke-linejoin: round;
        stroke-width: 3px;
      }

      .cls-5 {
        fill: #181818;
      }
    </style>
    <clipPath id="clippath">
      <rect class="cls-2" x="163.93" y="71.15" width="514.03" height="452.98"/>
    </clipPath>
  </defs>
  <g class="cls-1">
    <path class="cls-5" d="M546.4,133.87l-8.62,50.4c-8.51,2.4-17.67,5.32-27.48,8.74-8.14,2.85-15.82,5.64-23.03,8.38v-31.41l-43.12-3.94,6.12-47.1,96.14,14.94Z"/>
    <path class="cls-5" d="M503.51,473.86c-36.8,4.69-71.15-17.58-85.25-52.14l69,9.69v-101.84c2.85-1.06,5.76-1.94,8.72-2.63,11.9-2.8,28.22-3.9,45.77-5.84,16.56,13.57,28.3,33.75,31.29,57.32,5.98,47.06-25.14,89.8-69.54,95.44Z"/>
    <path class="cls-4" d="M481.83,303.43c-31.65,4.03-56.56,26.91-66.08,56.77-12.35-.7-25.37-7.83-34.08-21.33l19.07-13.28-24.76-55.31c7.07-13.39,23.51-28.94,60.76-47.31l-1.77,13.61,52.29,7.83v58.53c-1.81.09-3.62.26-5.44.49Z"/>
    <path class="cls-5" d="M444.14,166.03l-7.4,56.95c-37.25,18.37-53.69,33.92-60.76,47.31l-51.57-115.21,119.73,10.96Z"/>
    <path class="cls-5" d="M359.85,413.51l-63.06-105.51v-80.71l69.1,122.58,15.79-11c8.71,13.5,21.72,20.63,34.08,21.33-6.33,20.18-5.44,41.93,2.52,61.52l-58.42-8.22Z"/>
    <path class="cls-5" d="M296.78,152.54v74.75l-60.38-107.12,51.04-47.69,36.97,82.58-27.63-2.53Z"/>
    <path class="cls-3" d="M256.32,240.31l40.46,67.69v96.64l63.06,8.86,27.82,46.54-77.81,35.48-92.38-177.98c11.59-6.41,19.52-19.37,19.52-34.32.04-8.18-2.42-16.17-7.04-22.92l26.37-19.99Z"/>
    <path class="cls-4" d="M246.98,219.77l-59.14-29.88,38.6-29.88,20.54,59.75Z"/>
    <path class="cls-5" d="M200.99,321.82c-19.88,0-35.99-17.28-35.99-38.6s16.11-38.59,35.99-38.59c11.88,0,22.41,6.16,28.96,15.67l-30.28,22.96,17.79,34.29c-5.04,2.8-10.71,4.27-16.47,4.27h0Z"/>
    <path class="cls-6" d="M217.47,317.55l92.38,177.98,77.81-35.48-27.82-46.54-63.06-105.51-40.46-67.69-26.37,19.99-30.28,22.96,17.8,34.29Z"/>
    <path class="cls-6" d="M296.78,227.29l69.1,122.58,15.79-11,19.07-13.28-24.76-55.31-51.57-115.21-36.97-82.58-51.04,47.69,60.38,107.12Z"/>
    <path class="cls-6" d="M487.26,244.4l-52.29-7.83,1.77-13.6,7.4-56.94,6.12-47.1,96.14,14.94-8.62,50.4-11.29,66.01-39.22-5.87Z"/>
    <path class="cls-6" d="M418.27,421.72l69,9.69V169.97l-43.12-3.94-119.73-10.96-27.63-2.53v252.11l63.06,8.86,58.42,8.21Z"/>
    <path class="cls-6" d="M226.44,160.01l20.54,59.75-59.14-29.88,38.6-29.88Z"/>
    <path class="cls-6" d="M223.33,393.44l31.75,26.15-37.66,15.56,5.91-41.71Z"/>
    <path class="cls-6" d="M406.97,122.66l16.13,12.45v-32.37l-16.13,19.92Z"/>
    <path class="cls-6" d="M541.76,321.1c16.56,13.57,28.3,33.75,31.29,57.32,5.98,47.06-25.14,89.8-69.54,95.44-36.8,4.69-71.15-17.58-85.25-52.14-7.96-19.59-8.86-41.34-2.52-61.52,9.52-29.87,34.43-52.75,66.08-56.77,1.82-.23,3.63-.4,5.44-.49,20.19-1.13,39.35,5.75,54.49,18.17Z"/>
    <path class="cls-6" d="M229.95,260.31c4.62,6.75,7.07,14.75,7.04,22.92,0,14.95-7.93,27.91-19.52,34.32-5.04,2.8-10.71,4.28-16.48,4.27-19.88,0-35.99-17.28-35.99-38.6s16.11-38.59,35.99-38.59c11.88,0,22.41,6.16,28.96,15.67Z"/>
    <path class="cls-6" d="M541.75,321.1c25.6-2.84,53.83-7.5,74.88-21.89,23.53-16.1,32.09-40.37,33.72-58.9,2.1-23.92,10.06-90.74-112.58-56.05-8.51,2.4-17.67,5.32-27.48,8.74-8.14,2.85-15.82,5.64-23.03,8.38-20.08,7.61-36.73,14.79-50.52,21.6-37.25,18.37-53.69,33.92-60.76,47.31-6.87,13.02-4.87,23.99-4.5,33.52.56,14.46,4.43,26.16,10.19,35.07,8.71,13.5,21.72,20.63,34.08,21.33,2.46.14,4.92.01,7.35-.37,24.21-3.88,41.21-21.8,64.17-30.25,2.85-1.06,5.76-1.94,8.72-2.63,11.9-2.8,28.22-3.9,45.77-5.85Z"/>
    <path class="cls-6" d="M583.82,83.7c-4.77,9.86-5.48,21.21-1.97,31.59,1.88,5.48,5.31,10.89,10.72,12.98,7.68,2.97,17.35-3.25,17.85-11.47.19-3.14-1.06-6.65-3.93-7.95-4.2-1.91-8.99,2.08-10.38,6.48-2.41,7.58,2.11,16.66,9.61,19.31,4.62,1.63,9.7.99,14.58,1.47s10.27,2.73,11.7,7.42c1.79,5.87-3.48,11.33-8.24,15.23"/>
    <path class="cls-6" d="M604.27,355.97c-.3,6.01,4.95,11.48,10.91,12.32,5.96.85,12.05-2.36,15.6-7.22,3.55-4.87,4.78-11.13,4.44-17.14-.27-4.82-1.48-9.59-1.28-14.42.21-4.83,2.24-10.01,6.58-12.12,5.46-2.64,12.29.84,15.45,6.01,1.94,3.17,2.89,7.12,1.78,10.67-1.11,3.55-4.63,6.42-8.33,6.07-3.13-.3-5.75-2.76-7-5.66-1.25-2.89-1.34-6.15-1.13-9.29.54-8.44,3.36-17.17,9.76-22.7,6.4-5.53,16.93-6.7,23.18-1l2.48-2.06"/>
    <path class="cls-6" d="M187.22,373.53l13.9,12.03"/>
    <path class="cls-6" d="M188.06,385.97l11.83-13.9"/>
    <path class="cls-6" d="M180.38,437.85l15.15,12.24"/>
    <path class="cls-6" d="M192.41,435.15l-11.62,17.64"/>
    <path class="cls-6" d="M399.7,506.11l18.05,14.11"/>
    <path class="cls-6" d="M415.47,501.55l-13.07,21.16"/>
    <path class="cls-6" d="M431.45,473.33l-7.26-13.28"/>
    <path class="cls-6" d="M421.49,469.39l13.69-5.39"/>
    <path class="cls-6" d="M604.64,260.44l-32.37-21.03"/>
    <path class="cls-6" d="M616.81,250.48l-16.05-9.13"/>
    <path class="cls-6" d="M211.5,127.23l8.72-19.5"/>
    <path class="cls-6" d="M203.62,108.14l15.35-24.07"/>
    <path class="cls-6" d="M373.76,142.58l-12.45-18.26"/>
    <path class="cls-6" d="M356.75,140.51l18.26-11.2"/>
    <path class="cls-6" d="M386.94,98.49l2.18-11.62"/>
    <path class="cls-6" d="M380.71,90.4l12.76,3.73"/>
  </g>
</svg>